<svg xmlns="http://www.w3.org/2000/svg" width="25" height="18.75" viewBox="0 0 25 18.75">
  <path id="Icon_awesome-graduation-cap" data-name="Icon awesome-graduation-cap" d="M24.31,7.48,13.414,3.3a2.527,2.527,0,0,0-1.828,0L.69,7.48a1.243,1.243,0,0,0,0,2.226l1.9.729a4.446,4.446,0,0,0-.7,2.29,1.63,1.63,0,0,0-.641,1.336,1.661,1.661,0,0,0,.541,1.252l-1,5.609a.754.754,0,0,0,.61.951H3.6a.754.754,0,0,0,.61-.951l-1-5.609a1.661,1.661,0,0,0,.541-1.252,1.638,1.638,0,0,0-.612-1.312,2.478,2.478,0,0,1,.808-1.793l7.639,2.934a2.531,2.531,0,0,0,1.828,0l10.9-4.185A1.243,1.243,0,0,0,24.31,7.48Zm-10.529,7.9a3.543,3.543,0,0,1-2.562,0L5.554,13.21,5,18.75c0,1.726,3.358,3.125,7.5,3.125s7.5-1.4,7.5-3.125l-.554-5.541Z" transform="translate(0 -3.125)" fill="#ef6060"/>
</svg>
