<svg xmlns="http://www.w3.org/2000/svg" width="25" height="21.875" viewBox="0 0 25 21.875">
  <path id="Icon_awesome-camera" data-name="Icon awesome-camera" d="M25,7.719V21.781a2.344,2.344,0,0,1-2.344,2.344H2.344A2.344,2.344,0,0,1,0,21.781V7.719A2.344,2.344,0,0,1,2.344,5.375h4.3l.6-1.606A2.34,2.34,0,0,1,9.434,2.25h6.128a2.34,2.34,0,0,1,2.192,1.519l.605,1.606h4.3A2.344,2.344,0,0,1,25,7.719ZM18.359,14.75A5.859,5.859,0,1,0,12.5,20.609,5.864,5.864,0,0,0,18.359,14.75Zm-1.562,0a4.3,4.3,0,1,1-4.3-4.3A4.3,4.3,0,0,1,16.8,14.75Z" transform="translate(0 -2.25)" fill="#ef6060"/>
</svg>
