<svg xmlns="http://www.w3.org/2000/svg" width="25" height="12.502" viewBox="0 0 25 12.502">
  <path id="Icon_awesome-gamepad" data-name="Icon awesome-gamepad" d="M18.753,6.75H6.251a6.251,6.251,0,1,0,4.462,10.627h3.575A6.25,6.25,0,1,0,18.753,6.75ZM10,13.782a.47.47,0,0,1-.469.469H7.5v2.032a.47.47,0,0,1-.469.469H5.47A.47.47,0,0,1,5,16.283V14.251H2.969a.47.47,0,0,1-.469-.469V12.22a.47.47,0,0,1,.469-.469H5V9.719A.47.47,0,0,1,5.47,9.25H7.032a.47.47,0,0,1,.469.469v2.032H9.533A.47.47,0,0,1,10,12.22Zm7.189,2.657a1.875,1.875,0,1,1,1.875-1.875A1.876,1.876,0,0,1,17.19,16.439Zm3.125-3.125a1.875,1.875,0,1,1,1.875-1.875A1.876,1.876,0,0,1,20.316,13.314Z" transform="translate(0 -6.75)" fill="#ef6060"/>
</svg>
