<svg xmlns="http://www.w3.org/2000/svg" width="25" height="14.286" viewBox="0 0 25 14.286">
  <g id="Icon_ionic-ios-videocam" data-name="Icon ionic-ios-videocam" transform="translate(-1.563 -6.25)">
    <path id="Path_8" data-name="Path 8" d="M22,7.5a.745.745,0,0,0-.454.155L17.324,10.8a.518.518,0,0,0-.2.414v4.373a.518.518,0,0,0,.2.414l4.224,3.142A.783.783,0,0,0,22,19.3h1.016a.457.457,0,0,0,.42-.489V7.989a.46.46,0,0,0-.42-.489Z" transform="translate(3.125 0)" fill="#ef6060"/>
    <path id="Path_9" data-name="Path 9" d="M13.354,20.536H4.077a2.72,2.72,0,0,1-2.515-2.868V9.118A2.716,2.716,0,0,1,4.072,6.25H13.35a2.717,2.717,0,0,1,2.51,2.868v8.544A2.711,2.711,0,0,1,13.354,20.536Z" transform="translate(0 0)" fill="#ef6060"/>
  </g>
</svg>
