<svg xmlns="http://www.w3.org/2000/svg" width="25" height="23.091" viewBox="0 0 25 23.091">
  <g id="Icon_ionic-ios-cart" data-name="Icon ionic-ios-cart" transform="translate(-2.349 -3.12)">
    <path id="Path_13" data-name="Path 13" d="M8.984,20.7a1.172,1.172,0,1,1-1.172-1.172A1.172,1.172,0,0,1,8.984,20.7Z" transform="translate(1.122 4.336)" fill="#ef6060"/>
    <path id="Path_14" data-name="Path 14" d="M19.946,20.7a1.172,1.172,0,1,1-1.172-1.172A1.172,1.172,0,0,1,19.946,20.7Z" transform="translate(4.695 4.336)" fill="#ef6060"/>
    <path id="Path_15" data-name="Path 15" d="M27.34,7.381a.357.357,0,0,0-.313-.262L7.447,5.154A.6.6,0,0,1,7,4.861,6.381,6.381,0,0,0,6.262,3.7c-.463-.586-1.335-.568-2.934-.58a.888.888,0,0,0-.98.88.872.872,0,0,0,.938.88A7.7,7.7,0,0,1,4.85,5c.283.087.511.568.6.986A.023.023,0,0,0,5.451,6c.012.075.12.636.12.643l2.4,13.2a4.952,4.952,0,0,0,.872,2.227,2.37,2.37,0,0,0,1.978,1.011H25.049a.868.868,0,0,0,.866-.836.855.855,0,0,0-.842-.911H10.813a.682.682,0,0,1-.5-.175,2.843,2.843,0,0,1-.691-1.622L9.364,18.06a.034.034,0,0,1,.024-.037l16.695-2.932a.359.359,0,0,0,.295-.324l.962-7.224A.369.369,0,0,0,27.34,7.381Z" transform="translate(0)" fill="#ef6060"/>
  </g>
</svg>
