<svg xmlns="http://www.w3.org/2000/svg" width="25" height="25.004" viewBox="0 0 25 25.004">
  <g id="Icon_ionic-ios-american-football" data-name="Icon ionic-ios-american-football" transform="translate(-2.343 -2.344)">
    <path id="Path_10" data-name="Path 10" d="M22.3,7.4A17.852,17.852,0,0,0,13.35,2.91L2.91,13.351A17.828,17.828,0,0,0,7.395,22.3a17.852,17.852,0,0,0,8.945,4.485l10.44-10.44A17.853,17.853,0,0,0,22.3,7.4Zm-2.1,9.4-1.167,1.167.9.9a.752.752,0,0,1,0,1.07h0a.752.752,0,0,1-1.07,0l-.9-.9L16.79,20.206a.836.836,0,0,1-.444.237.788.788,0,0,1-.687-.219h0a.766.766,0,0,1-.194-.322.8.8,0,0,1,.194-.8l1.185-1.185-.948-.948-1.173,1.173a.809.809,0,0,1-.462.237.793.793,0,0,1-.814-.425.659.659,0,0,1-.049-.115.789.789,0,0,1,.194-.8l1.185-1.185-.942-.948-1.173,1.173a.809.809,0,0,1-.462.237.792.792,0,0,1-.814-.425.659.659,0,0,1-.049-.115.789.789,0,0,1,.194-.8l1.185-1.185-.942-.948L10.6,14.013a.809.809,0,0,1-.462.237.793.793,0,0,1-.814-.425.659.659,0,0,1-.049-.115.789.789,0,0,1,.194-.8l1.185-1.185-.9-.9a.752.752,0,0,1,0-1.07h0a.752.752,0,0,1,1.07,0l.9.9L12.9,9.48a.809.809,0,0,1,.462-.237.793.793,0,0,1,.814.425.659.659,0,0,1,.049.115.789.789,0,0,1-.194.8l-1.185,1.185.948.948,1.173-1.173a.836.836,0,0,1,.444-.237.788.788,0,0,1,.687.219h0a.711.711,0,0,1,.194.316.789.789,0,0,1-.194.8l-1.191,1.191.948.948,1.173-1.173a.809.809,0,0,1,.462-.237.792.792,0,0,1,.814.425.659.659,0,0,1,.049.115.789.789,0,0,1-.194.8L16.972,15.9l.948.948,1.173-1.173a.846.846,0,0,1,.486-.243.774.774,0,0,1,.693.28A.824.824,0,0,1,20.2,16.79Z" fill="#ef6060"/>
    <path id="Path_11" data-name="Path 11" d="M19.292,22.656a27.288,27.288,0,0,0,2.871-.142.394.394,0,0,0,.347-.347,28.949,28.949,0,0,0-.156-7.017l-7.2,7.207A27.851,27.851,0,0,0,19.292,22.656Z" transform="translate(4.69 4.691)" fill="#ef6060"/>
    <path id="Path_12" data-name="Path 12" d="M5.7,2.344a27.372,27.372,0,0,0-2.871.142.394.394,0,0,0-.347.347,28.91,28.91,0,0,0,.156,7.012l7.2-7.2A27.851,27.851,0,0,0,5.7,2.344Z" fill="#ef6060"/>
  </g>
</svg>
