<svg xmlns="http://www.w3.org/2000/svg" width="25" height="24.995" viewBox="0 0 25 24.995">
  <g id="Icon_ionic-ios-apps" data-name="Icon ionic-ios-apps" transform="translate(-4.493 -4.496)">
    <path id="Path_19" data-name="Path 19" d="M28.634,9.675,18.91,4.887a4.9,4.9,0,0,0-3.834,0L5.359,9.675c-1.146.562-1.146,1.484,0,2.046l9.633,4.746a5.151,5.151,0,0,0,4.009,0l9.633-4.746C29.779,11.159,29.779,10.238,28.634,9.675Z" fill="#8160ef"/>
    <g id="Group_10" data-name="Group 10" transform="translate(4.493 13.868)">
      <path id="Path_20" data-name="Path 20" d="M14.992,26.381l-6.5-3.2a.985.985,0,0,0-.866,0L5.359,24.3c-1.146.563-1.146,1.484,0,2.046l9.633,4.746a5.151,5.151,0,0,0,4.009,0l9.633-4.746c1.146-.562,1.146-1.484,0-2.046l-2.271-1.118a.985.985,0,0,0-.866,0l-6.5,3.2A5.151,5.151,0,0,1,14.992,26.381Z" transform="translate(-4.493 -15.875)" fill="#8160ef"/>
      <path id="Path_21" data-name="Path 21" d="M28.634,16.987,26.57,15.975a.971.971,0,0,0-.859,0l-7.029,3.438a5.339,5.339,0,0,1-3.378,0L8.275,15.975a.971.971,0,0,0-.859,0L5.352,16.987c-1.146.563-1.146,1.484,0,2.046l9.633,4.746a5.152,5.152,0,0,0,4.009,0l9.633-4.746C29.779,18.471,29.779,17.55,28.634,16.987Z" transform="translate(-4.493 -15.875)" fill="#8160ef"/>
    </g>
  </g>
</svg>
