<svg xmlns="http://www.w3.org/2000/svg" width="25" height="25" viewBox="0 0 25 25">
  <path id="Icon_ionic-ios-contact" data-name="Icon ionic-ios-contact" d="M15.875,3.375h0A12.494,12.494,0,0,0,3.447,14.559a12.046,12.046,0,0,0,0,2.632A12.494,12.494,0,0,0,15.875,28.375h0a12.5,12.5,0,0,0,0-25Zm8.161,19.6c-1.364-.517-3.576-1.274-4.952-1.683-.144-.042-.162-.054-.162-.643a3.42,3.42,0,0,1,.4-1.4,6.984,6.984,0,0,0,.553-1.9,4.222,4.222,0,0,0,.817-1.977,2.637,2.637,0,0,0-.024-1.659,1.065,1.065,0,0,1-.036-.1,10.807,10.807,0,0,1,.186-2.332,4.294,4.294,0,0,0-.9-3.083A4.594,4.594,0,0,0,16.4,6.512H15.352a4.588,4.588,0,0,0-3.486,1.683,4.275,4.275,0,0,0-.9,3.083,10.807,10.807,0,0,1,.186,2.332c-.012.042-.024.072-.036.108a2.593,2.593,0,0,0-.024,1.659,4.288,4.288,0,0,0,.817,1.977,7.273,7.273,0,0,0,.553,1.9,3.357,3.357,0,0,1,.228,1.418c0,.595-.024.6-.156.643-1.424.421-3.54,1.166-4.808,1.671a10.817,10.817,0,0,1,15.8-14.76,10.817,10.817,0,0,1,.511,14.748Z" transform="translate(-3.375 -3.375)" fill="#8160ef"/>
</svg>
