<svg xmlns="http://www.w3.org/2000/svg" width="40" height="40" viewBox="0 0 40 40">
  <path id="Icon_ionic-ios-contact" data-name="Icon ionic-ios-contact" d="M22.344,2.344h0A19.991,19.991,0,0,0,2.459,20.238a19.273,19.273,0,0,0,0,4.212A19.991,19.991,0,0,0,22.344,42.344h0a20,20,0,0,0,0-40ZM35.4,33.7c-2.183-.827-5.721-2.038-7.923-2.692-.231-.067-.26-.087-.26-1.029a5.472,5.472,0,0,1,.635-2.24,11.175,11.175,0,0,0,.885-3.038,6.756,6.756,0,0,0,1.308-3.163,4.22,4.22,0,0,0-.038-2.654,1.7,1.7,0,0,1-.058-.163,17.291,17.291,0,0,1,.3-3.731,6.87,6.87,0,0,0-1.433-4.933A7.35,7.35,0,0,0,23.19,7.363H21.507a7.34,7.34,0,0,0-5.577,2.692,6.841,6.841,0,0,0-1.442,4.933,17.291,17.291,0,0,1,.3,3.731c-.019.067-.038.115-.058.173a4.148,4.148,0,0,0-.038,2.654A6.86,6.86,0,0,0,16,24.709a11.637,11.637,0,0,0,.885,3.038,5.372,5.372,0,0,1,.365,2.269c0,.952-.038.962-.25,1.029-2.279.673-5.663,1.865-7.692,2.673A17.307,17.307,0,0,1,34.584,10.1,17.307,17.307,0,0,1,35.4,33.7Z" transform="translate(-2.344 -2.344)" fill="#747474"/>
</svg>
