<svg xmlns="http://www.w3.org/2000/svg" width="25" height="23.214" viewBox="0 0 25 23.214">
  <path id="Icon_ionic-ios-star-outline" data-name="Icon ionic-ios-star-outline" d="M26.3,11.411H18.093L15.6,3.967a.9.9,0,0,0-1.7,0l-2.494,7.444H3.143a.9.9,0,0,0-.893.893.656.656,0,0,0,.017.151.858.858,0,0,0,.374.631l6.747,4.754L6.8,25.367a.9.9,0,0,0,.307,1,.863.863,0,0,0,.5.218,1.094,1.094,0,0,0,.558-.2L14.75,21.7l6.585,4.693a1.046,1.046,0,0,0,.558.2.8.8,0,0,0,.5-.218.884.884,0,0,0,.307-1l-2.589-7.528,6.691-4.8.162-.14a.936.936,0,0,0,.29-.6A.945.945,0,0,0,26.3,11.411Zm-7.1,5.162a1.567,1.567,0,0,0-.569,1.775l1.68,4.894a.224.224,0,0,1-.34.257l-4.319-3.08a1.559,1.559,0,0,0-.91-.29,1.53,1.53,0,0,0-.9.29L9.521,23.492a.223.223,0,0,1-.34-.257l1.68-4.894a1.573,1.573,0,0,0-.575-1.786l-4.52-3.186a.224.224,0,0,1,.128-.407H11.4A1.56,1.56,0,0,0,12.881,11.9l1.652-4.922a.225.225,0,0,1,.424,0L16.608,11.9a1.56,1.56,0,0,0,1.479,1.066h5.43a.221.221,0,0,1,.128.4Z" transform="translate(-2.25 -3.375)" fill="#ef6060"/>
</svg>
