<svg xmlns="http://www.w3.org/2000/svg" width="83.285" height="83.285" viewBox="0 0 83.285 83.285">
  <path id="Icon_ionic-ios-contact" data-name="Icon ionic-ios-contact" d="M43.986,2.344h0A41.624,41.624,0,0,0,2.584,39.6a40.128,40.128,0,0,0,0,8.769,41.624,41.624,0,0,0,41.4,37.258h0a41.643,41.643,0,0,0,0-83.285ZM71.174,67.631c-4.545-1.722-11.912-4.244-16.5-5.606-.48-.14-.541-.18-.541-2.142a11.393,11.393,0,0,1,1.321-4.665A23.267,23.267,0,0,0,57.3,48.891c.841-.981,2-2.9,2.723-6.587.641-3.243.34-4.425-.08-5.526a3.545,3.545,0,0,1-.12-.34,36,36,0,0,1,.621-7.768A14.3,14.3,0,0,0,57.46,18.4c-1.822-2.342-5.325-5.205-11.712-5.606h-3.5c-6.286.4-9.77,3.263-11.612,5.606a14.243,14.243,0,0,0-3,10.271,36,36,0,0,1,.621,7.768c-.04.14-.08.24-.12.36-.42,1.1-.741,2.282-.08,5.526.741,3.684,1.882,5.606,2.723,6.587a24.23,24.23,0,0,0,1.842,6.326,11.184,11.184,0,0,1,.761,4.725c0,1.982-.08,2-.521,2.142-4.745,1.4-11.792,3.884-16.016,5.566A36.035,36.035,0,0,1,69.472,18.5a36.036,36.036,0,0,1,1.7,49.13Z" transform="translate(-2.344 -2.344)" fill="#8160ef"/>
</svg>
